<?xml version="1.0" encoding="UTF-8" standalone="no"?>
<svg
   xmlns:dc="http://purl.org/dc/elements/1.1/"
   xmlns:cc="http://creativecommons.org/ns#"
   xmlns:rdf="http://www.w3.org/1999/02/22-rdf-syntax-ns#"
   xmlns:svg="http://www.w3.org/2000/svg"
   xmlns="http://www.w3.org/2000/svg"
   version="1.1"
   id="svg28"
   xml:space="preserve"
   width="244.37506"
   height="49.991867"
   viewBox="0 0 244.37507 49.991866"><metadata
     id="metadata34"><rdf:RDF><cc:Work
         rdf:about=""><dc:format>image/svg+xml</dc:format><dc:type
           rdf:resource="http://purl.org/dc/dcmitype/StillImage" /><dc:title></dc:title></cc:Work></rdf:RDF></metadata><defs
     id="defs32"><clipPath
       clipPathUnits="userSpaceOnUse"
       id="clipPath44"><path
         d="M 0,841.89 H 595.28 V 0 H 0 Z"
         id="path42" /></clipPath></defs><g
     id="g36"
     transform="matrix(1.3333333,0,0,-1.3333333,-168.77506,555.40932)"><g
       id="g178"
       transform="translate(138.0073,405.334)"><path
         d="m 0,0 c -2.919,0 -6.728,-0.839 -11.426,-2.516 0.235,-1.61 0.353,-2.785 0.353,-3.524 v -19.676 h 6.04 v 18.268 c 0,0.2 -0.034,0.552 -0.1,1.057 1.979,0.738 3.672,1.108 5.081,1.108 3.323,0 4.984,-1.544 4.984,-4.63 V -25.716 H 10.97 V -8.958 C 10.97,-2.985 7.313,0 0,0"
         style="fill:#ffffff;fill-opacity:1;fill-rule:nonzero;stroke:none"
         id="path180" /></g><path
       d="m 288.584,379.616 h -6.038 v 25.164 h 6.038 z"
       style="fill:#ffffff;fill-opacity:1;fill-rule:nonzero;stroke:none"
       id="path182" /><path
       d="m 208.418,379.618 h -6.04 v 36.939 h 6.04 z"
       style="fill:#ffffff;fill-opacity:1;fill-rule:nonzero;stroke:none"
       id="path184" /><g
       id="g186"
       transform="translate(175.2217,385.1045)"><path
         d="M 0,0 V 19.676 H -6.042 V 1.406 c 0,-0.199 0.034,-0.553 0.101,-1.056 -1.98,-0.735 -3.674,-1.105 -5.082,-1.105 -3.322,0 -4.981,1.542 -4.981,4.63 v 15.801 h -6.04 V 2.918 c 0,-5.975 3.656,-8.957 10.971,-8.957 2.919,0 6.727,0.837 11.423,2.514 C 0.115,-1.913 0,-0.738 0,0"
         style="fill:#ffffff;fill-opacity:1;fill-rule:nonzero;stroke:none"
         id="path188" /></g><g
       id="g190"
       transform="translate(218.4121,394.7158)"><path
         d="M 0,0 C 0.068,1.579 0.572,2.91 1.512,4.002 2.451,5.091 3.693,5.637 5.235,5.637 6.847,5.637 8.12,5.1 9.062,4.025 9.898,2.984 10.336,1.645 10.369,0 Z m 16.61,-1.408 c 0,3.589 -0.991,6.472 -2.972,8.655 -2.08,2.247 -4.897,3.372 -8.451,3.372 -3.694,0 -6.595,-1.291 -8.708,-3.875 -1.979,-2.383 -2.971,-5.485 -2.971,-9.31 0,-3.924 1.183,-7.088 3.55,-9.488 2.364,-2.397 5.476,-3.596 9.334,-3.596 2.851,0 5.738,0.62 8.657,1.863 l -1.915,4.678 c -1.943,-0.873 -4.072,-1.307 -6.388,-1.307 -4.094,0 -6.343,1.895 -6.746,5.685 h 16.257 c 0.234,1.711 0.353,2.818 0.353,3.323"
         style="fill:#ffffff;fill-opacity:1;fill-rule:nonzero;stroke:none"
         id="path192" /></g><g
       id="g194"
       transform="translate(248.1069,384.0977)"><path
         d="m 0,0 c -3.119,0 -4.68,1.021 -4.68,3.067 0,1.041 0.622,1.846 1.862,2.418 0.537,0.231 1.828,0.584 3.874,1.055 1.646,0.369 2.718,0.805 3.222,1.31 V 1.659 C 4.278,1.458 4.31,1.139 4.38,0.704 2.902,0.233 1.442,0 0,0 m 10.319,0.099 v 12.933 c 0,2.784 -0.89,4.883 -2.67,6.293 -1.642,1.274 -3.892,1.911 -6.745,1.911 -3.453,0 -6.757,-0.721 -9.91,-2.165 l 2.063,-4.578 c 2.347,1.006 4.679,1.51 6.995,1.51 2.816,0 4.226,-0.774 4.226,-2.315 0,-1.108 -1.344,-1.963 -4.026,-2.568 -3.959,-0.872 -6.476,-1.578 -7.547,-2.114 -2.686,-1.341 -4.027,-3.472 -4.027,-6.392 0,-2.648 1.275,-4.664 3.824,-6.037 2.015,-1.073 4.494,-1.611 7.449,-1.611 2.849,0 6.424,0.654 10.72,1.964 -0.234,1.473 -0.352,2.531 -0.352,3.169"
         style="fill:#ffffff;fill-opacity:1;fill-rule:nonzero;stroke:none"
         id="path196" /></g><g
       id="g198"
       transform="translate(274.7573,405.334)"><path
         d="m 0,0 c -3.219,0 -7.043,-0.924 -11.473,-2.768 0.302,-1.746 0.453,-3.003 0.453,-3.774 v -19.176 h 6.041 v 19.325 c 0,0.103 -0.018,0.269 -0.052,0.503 1.408,0.438 2.919,0.657 4.53,0.657 1.139,0 2.249,-0.169 3.322,-0.504 l 1.81,5.183 C 3.223,-0.186 1.678,0 0,0"
         style="fill:#ffffff;fill-opacity:1;fill-rule:nonzero;stroke:none"
         id="path200" /></g><g
       id="g202"
       transform="translate(306.8936,392.7041)"><path
         d="m 0,0 c -0.672,0.467 -2.517,1.304 -5.537,2.514 -1.98,0.806 -2.969,1.744 -2.969,2.819 0,1.509 1.038,2.264 3.119,2.264 1.645,0 3.491,-0.387 5.539,-1.157 l 1.711,4.679 c -2.114,1.008 -4.53,1.511 -7.25,1.511 -2.35,0 -4.395,-0.554 -6.139,-1.659 -2.113,-1.346 -3.169,-3.205 -3.169,-5.589 0,-2.347 0.956,-4.227 2.866,-5.636 0.369,-0.269 2.116,-1.141 5.234,-2.617 1.914,-0.904 2.868,-1.945 2.868,-3.121 0,-1.842 -1.275,-2.767 -3.823,-2.767 -1.677,0 -3.69,0.503 -6.039,1.509 l -1.762,-4.729 c 2.92,-1.109 5.687,-1.662 8.304,-1.662 2.648,0 4.901,0.553 6.742,1.662 2.185,1.373 3.274,3.338 3.274,5.887 C 2.969,-3.477 1.977,-1.445 0,0"
         style="fill:#ffffff;fill-opacity:1;fill-rule:nonzero;stroke:none"
         id="path204" /></g><g
       id="g206"
       transform="translate(185.6968,400.9238)"><path
         d="m 0,0 c 3.182,0 6.831,-1.618 9.219,-4.818 l 5.091,4.023 C 11.991,2.075 8.446,3.91 4.47,3.91 0.189,3.91 -3.321,1.86 -5.796,-1.3 -4.244,-0.485 -2.303,0 0,0"
         style="fill:#ffffff;fill-opacity:1;fill-rule:nonzero;stroke:none"
         id="path208" /></g><g
       id="g210"
       transform="translate(186.6035,386.5703)"><path
         d="m 0,0 c 2.447,-3.163 5.81,-4.882 9.683,-4.693 0.543,0.026 0.847,0.003 1.352,0.131 0.874,0.665 1.831,1.549 2.505,2.415 L 8.695,1.601 C 7.502,0.078 5.647,-0.901 3.563,-0.901 2.304,-0.901 0.997,-0.619 0,0"
         style="fill:#ffffff;fill-opacity:1;fill-rule:nonzero;stroke:none"
         id="path212" /></g><g
       id="g214"
       transform="translate(190.457,398.7041)"><path
         d="m 0,0 c 0.01,-0.008 -0.188,0 -0.291,0 -3.6,0 -6.486,-2.893 -6.486,-6.49 0,-0.36 0.11,-1.114 0.114,-1.132 0.091,-0.524 0.18,-1.261 0.387,-1.735 1.443,-4.602 5.965,-8.597 11.957,-8.309 -1.779,-0.957 -3.812,-1.498 -5.972,-1.498 -6.985,0 -12.647,5.661 -12.647,12.648 0,2.172 0.549,4.217 1.514,6.002 1.879,1.168 3.998,1.859 6.44,1.799 0,0 2.354,0.073 4.984,-1.285"
         style="fill:#ffffff;fill-opacity:1;fill-rule:nonzero;stroke:none"
         id="path216" /></g></g></svg>
